<svg width="38" height="25" viewBox="0 0 38 25" fill="none" xmlns="http://www.w3.org/2000/svg">
<g id="Cloudweave Logo" clip-path="url(#clip0_83_3826)">
<g id="Group">
<path id="Vector" d="M15.1823 24.9946C21.1432 24.9946 20.4659 16.2777 20.5211 16.1189C20.5171 16.0077 20.5144 15.895 20.5144 15.7824C20.5144 10.6949 24.4283 6.57013 29.2572 6.57013C34.086 6.57013 38 10.6942 38 15.7824C38 20.8705 34.086 24.9946 29.2572 24.9946C29.0733 24.9946 28.8914 25.0065 28.7108 24.9946C26.4726 24.9946 17.4138 24.9946 16.7426 24.9946C15.9764 24.9946 15.1816 24.9946 15.1816 24.9946H15.1823Z" fill="url(#paint0_linear_83_3826)"/>
<g id="Vector_2" filter="url(#filter0_b_83_3826)">
<path d="M11.8593 24.993C5.30954 24.993 0 19.3983 0 12.4962C0 5.59395 5.30954 0 11.8593 0C18.4091 0 23.7186 5.59465 23.7186 12.4962C23.7186 12.7849 23.71 13.0734 23.71 13.3622C23.71 13.7153 23.1662 25.3666 31.2052 24.7656C31.2052 24.7656 30.4085 25.0637 28.8482 25.0105L11.8586 24.9923L11.8593 24.993Z" fill="url(#paint1_linear_83_3826)" fill-opacity="0.8"/>
<path d="M26.555 23.3804C27.3907 24.1648 28.4561 24.7146 29.8084 24.8708C29.5317 24.8882 29.213 24.8948 28.8526 24.8826L28.8526 24.8825L28.8484 24.8825L11.8588 24.8643L11.7206 24.8642C5.31149 24.7858 0.128 19.2851 0.128 12.4962C0.128 5.65826 5.38645 0.128 11.8593 0.128C18.3322 0.128 23.5906 5.65895 23.5906 12.4962C23.5906 12.6394 23.5885 12.7828 23.5863 12.9272L23.5863 12.9277C23.5842 13.0717 23.582 13.2169 23.582 13.3622C23.582 13.3729 23.5815 13.3947 23.5807 13.4269C23.5688 13.9104 23.4996 16.7364 24.3204 19.4586C24.7583 20.9109 25.4528 22.3457 26.555 23.3804Z" stroke="url(#paint2_linear_83_3826)" stroke-width="0.256"/>
</g>
</g>
</g>
<defs>
<filter id="filter0_b_83_3826" x="-4.9536" y="-4.9536" width="41.1124" height="34.924" filterUnits="userSpaceOnUse" color-interpolation-filters="sRGB">
<feFlood flood-opacity="0" result="BackgroundImageFix"/>
<feGaussianBlur in="BackgroundImageFix" stdDeviation="2.4768"/>
<feComposite in2="SourceAlpha" operator="in" result="effect1_backgroundBlur_83_3826"/>
<feBlend mode="normal" in="SourceGraphic" in2="effect1_backgroundBlur_83_3826" result="shape"/>
</filter>
<linearGradient id="paint0_linear_83_3826" x1="31.5704" y1="8.1848" x2="23.0338" y2="23.8408" gradientUnits="userSpaceOnUse">
<stop stop-color="#42BCFF"/>
<stop offset="1" stop-color="#5C3FFD"/>
</linearGradient>
<linearGradient id="paint1_linear_83_3826" x1="5.17874" y1="2.55352" x2="28.5622" y2="23.7531" gradientUnits="userSpaceOnUse">
<stop stop-color="#85EFEF"/>
<stop offset="0.69" stop-color="#00B6FF"/>
</linearGradient>
<linearGradient id="paint2_linear_83_3826" x1="9.95911" y1="16.7203" x2="27.6878" y2="24.3477" gradientUnits="userSpaceOnUse">
<stop stop-color="white" stop-opacity="0.8"/>
<stop offset="1" stop-color="white" stop-opacity="0.2"/>
</linearGradient>
<clipPath id="clip0_83_3826">
<rect width="38" height="25" fill="white"/>
</clipPath>
</defs>
</svg>
